<?xml version="1.0" encoding="UTF-8" standalone="no"?>
<svg
   xmlns:dc="http://purl.org/dc/elements/1.1/"
   xmlns:cc="http://creativecommons.org/ns#"
   xmlns:rdf="http://www.w3.org/1999/02/22-rdf-syntax-ns#"
   xmlns:svg="http://www.w3.org/2000/svg"
   xmlns="http://www.w3.org/2000/svg"
   xmlns:sodipodi="http://sodipodi.sourceforge.net/DTD/sodipodi-0.dtd"
   xmlns:inkscape="http://www.inkscape.org/namespaces/inkscape"
   version="1.0"
   width="1280.000000pt"
   height="129.000000pt"
   viewBox="0 0 1280.000000 129.000000"
   preserveAspectRatio=""
   id="svg6"
   sodipodi:docname="wave.svg"
   inkscape:version="1.0.1 (3bc2e813f5, 2020-09-07)">
  <metadata
     id="metadata12">
    <rdf:RDF>
      <cc:Work
         rdf:about="">
        <dc:format>image/svg+xml</dc:format>
        <dc:type
           rdf:resource="http://purl.org/dc/dcmitype/StillImage" />
        <dc:title></dc:title>
      </cc:Work>
    </rdf:RDF>
  </metadata>
  <defs
     id="defs10" />
  <sodipodi:namedview
     pagecolor="#ffffff"
     bordercolor="#333333"
     borderopacity="1"
     objecttolerance="10"
     gridtolerance="10"
     guidetolerance="10"
     inkscape:pageopacity="0"
     inkscape:pageshadow="2"
     inkscape:window-width="1914"
     inkscape:window-height="1024"
     id="namedview8"
     showgrid="true"
     inkscape:zoom="3.8144879"
     inkscape:cx="4.6577873"
     inkscape:cy="-2.4448144"
     inkscape:window-x="0"
     inkscape:window-y="25"
     inkscape:window-maximized="1"
     inkscape:current-layer="svg6"
     inkscape:document-rotation="0">
    <inkscape:grid
       type="xygrid"
       id="grid60" />
  </sodipodi:namedview>
  <g
     transform="translate(0.000000,129.000000) scale(0.100000,-0.100000)"
     fill="#333333"
     stroke="#333333"
     id="g4">
    <path
       d="M2615 1284 c-33 -2 -145 -8 -250 -14 -807 -45 -1633 -187 -2272 -391 l-93 -30 0 -424 0 -425 6400 0 6400 0 0 420 c0 231 -3 420 -6 420 -4 0 -63 -18 -133 -41 -394 -126 -972 -247 -1506 -313 -510 -64 -802 -81 -1410 -81 -644 0 -1001 21 -1585 96 -591 75 -1050 165 -1775 349 -953 241 -1682 360 -2590 421 -154 10 -1057 20 -1180 13z"
       id="path2" />
  </g>
  <path
     style="fill:#333333;stroke-width:1.19598"
     d="M 96.565851,101.84676 96.874562,32.77879 124.79417,27.201121 C 189.13942,14.346484 252.47739,6.7134003 332.48306,2.171798 364.93855,0.32942958 485.29179,1.5689428 519.86154,4.1016016 c 91.18238,6.6802294 168.89624,18.0325094 258.7229,37.7937054 11.84023,2.604761 46.55361,10.877808 77.14086,18.384548 112.29559,27.559652 164.1089,37.396343 251.7543,47.795215 70.9625,8.4195 94.5979,9.60226 191.9551,9.60577 97.3707,0.003 116.7641,-1.04764 188.9652,-10.24215 39.3903,-5.01619 112.8072,-17.711826 121.3238,-20.979942 1.6643,-0.638675 1.8624,3.813224 1.8624,41.870662 v 42.58533 H 853.92161 96.25714 Z"
     id="path18"
     transform="scale(0.75000001)" />
  <path
     style="fill:#333333;stroke-width:0.159403"
     d="M 0.06619955,115.36555 0.06928152,58.817274 4.2505329,57.476096 C 18.26134,52.981989 26.081693,50.580386 35.769429,47.796756 54.409744,42.440729 74.30965,37.399157 96.103531,32.511317 c 2.980839,-0.66853 5.599039,-1.249611 5.818219,-1.291292 0.21918,-0.04168 2.55045,-0.534067 5.1806,-1.094193 13.04728,-2.77859 28.95813,-5.862011 43.11856,-8.356099 11.15911,-1.965465 12.99569,-2.245775 14.60947,-2.229804 l 1.56995,0.01554 -4.54299,0.780185 c -11.53237,1.980497 -19.21059,3.378136 -29.72869,5.411405 -7.65266,1.479346 -35.178123,6.982801 -35.235259,7.044955 -0.02151,0.0234 -0.08277,11.37611 -0.136132,25.228246 -0.05336,13.852136 -0.132378,29.381991 -0.175591,34.510788 -0.04321,5.128797 -0.114985,21.734622 -0.159494,36.901832 -0.04451,15.16721 -0.124068,30.715 -0.1768,34.55064 l -0.09588,6.97389 h 86.333696 86.33368 v 0.47821 0.47821 H 134.43999 0.06311761 Z"
     id="path62"
     transform="scale(0.75000001)" />
  <path
     style="fill:#333333;stroke-width:2.96598"
     d="M 1611.5016,128.63596 V 87.226515 l 12.6054,-3.107762 c 6.933,-1.70927 27.1449,-7.130469 44.9152,-12.047109 17.7704,-4.916641 33.1194,-8.133243 34.1089,-7.148004 0.9894,0.985238 2.2187,25.040689 2.7316,53.45656 l 0.9327,51.66521 h -47.6469 -47.6469 z"
     id="path64"
     transform="scale(0.75000001)" />
  <path
     style="fill:#333333;stroke-width:0.185374"
     d="m 1706.4342,149.81713 c -0.6411,-47.52525 -1.8178,-79.589124 -3.0948,-84.331547 l -0.1909,-0.708763 h -1.2782 c -1.5969,0 -6.499,0.819525 -11.591,1.937765 -6.2598,1.37471 -14.0641,3.383325 -29.1961,7.514318 -19.6395,5.361531 -30.0944,8.131056 -40.6435,10.766655 l -9.037,2.257792 -0.027,2.896501 -0.026,2.8965 -0.1602,-2.224488 c -0.1835,-2.547047 -0.4903,-3.959747 -0.9182,-4.22706 -0.2128,-0.13293 -0.7917,-0.04577 -2.0392,0.306996 -5.5345,1.565159 -22.2499,4.920061 -40.2883,8.086137 -4.1713,0.732147 -4.8863,0.83237 -4.7148,0.660903 0.047,-0.04699 3.0014,-0.635449 6.5653,-1.30769 45.8341,-8.645349 86.5248,-18.613619 120.6703,-29.561396 8.1044,-2.598444 13.9112,-4.386558 14.756,-4.543877 l 0.6676,-0.124317 0.1259,2.657035 c 0.2875,6.067139 0.4777,24.956901 0.6,59.613186 0.071,20.21272 0.088,36.75039 0.038,36.75039 -0.051,0 -0.1485,-4.19177 -0.2177,-9.31504 z"
     id="path66"
     transform="scale(0.75000001)" />
  <path
     style="fill:#333333;stroke-width:0.0163849"
     d="m 1499.9704,105.69825 v -0.18729 l 0.127,-0.0179 c 0.07,-0.01 0.9454,-0.12901 1.9457,-0.26482 9.7466,-1.32327 20.4249,-2.90506 30.3646,-4.49797 0.8129,-0.13028 1.4894,-0.23687 1.5033,-0.23687 0.02,0 0.025,0.0229 0.025,0.12159 0,0.11941 -8e-4,0.12175 -0.045,0.13109 -0.091,0.0191 -3.8593,0.61876 -6.599,1.04997 -9.2751,1.45984 -18.8864,2.90103 -26.1667,3.92363 -0.5767,0.081 -1.0726,0.15146 -1.1019,0.15656 l -0.053,0.009 z"
     id="path100"
     transform="scale(0.75000001)" />
  <path
     style="fill:#333333;stroke-width:0.0163849"
     d="m 1706.5683,110.36122 c -7e-4,-0.76374 0,-1.4218 -0.01,-1.46235 0,-0.0406 -0.01,-1.36773 -0.015,-2.94929 -0.01,-1.58155 -0.014,-3.22209 -0.018,-3.64564 0,-0.42354 -0.012,-1.57745 -0.016,-2.564232 -0.011,-2.371898 -0.023,-4.319314 -0.033,-5.366055 0,-0.468608 -0.013,-1.69809 -0.019,-2.732182 l -0.011,-1.880167 h 0.083 0.083 l 0.01,0.413719 c 0.01,0.411005 0.03,3.4492 0.06,8.925674 0.01,1.572543 0.021,5.061913 0.027,7.754153 l 0.011,4.89499 h -0.076 -0.076 z"
     id="path102"
     transform="scale(0.75000001)" />
  <path
     style="fill:#333333;stroke-width:0.0163849"
     d="m 1706.3848,82.193637 c 0,-0.03379 -0.01,-0.275266 -0.01,-0.536605 0,-0.74005 -0.054,-5.104863 -0.084,-7.160201 -0.037,-2.600421 -0.092,-5.704426 -0.1223,-6.92262 -0.054,-2.216046 -0.082,-3.118396 -0.1239,-4.14538 -0.024,-0.583205 -0.1272,-2.797304 -0.1394,-2.99434 l -0.01,-0.167945 h 0.05 c 0.057,0 0.057,-0.0017 0.084,0.27035 0.1757,1.776991 0.3597,8.867609 0.4831,18.621439 0.013,1.04085 0.028,2.163421 0.034,2.494601 l 0.01,0.602145 h -0.081 -0.081 z"
     id="path104"
     transform="scale(0.75000001)" />
  <path
     style="fill:#333333;stroke-width:0.0163849"
     d="m 1703.1582,64.956601 c -0.04,-0.06157 -0.1244,-0.107922 -0.2613,-0.144119 l -0.1204,-0.03184 0.1874,0.0035 0.1874,0.0035 0.021,0.08192 c 0.028,0.107027 0.022,0.142752 -0.014,0.08705 z"
     id="path106"
     transform="scale(0.75000001)" />
  <path
     style="fill:#333333;stroke-width:0.0163849"
     d="m 1682.4387,73.461808 v -6.162342 l 0.6882,-0.212327 c 2.5052,-0.772964 4.7583,-1.482172 8.0846,-2.544864 6.9873,-2.23233 11.5197,-3.637254 13.3678,-4.143727 0.3763,-0.103109 0.5902,-0.151874 1.006,-0.229358 l 0.2897,-0.05397 0.011,0.07918 c 0.01,0.06995 0.015,0.07918 0.051,0.07918 0.056,0 0.064,0.03048 0.094,0.376852 0.091,1.034192 0.1839,3.392134 0.2636,6.676847 0.013,0.549713 0.028,1.154316 0.033,1.343562 0.036,1.367479 0.1216,6.278358 0.1551,8.913385 0.01,0.711924 0.021,1.462147 0.026,1.667164 l 0.01,0.372756 h -0.9595 -0.9596 v -0.04735 c 0,-0.07679 -0.1101,-2.060457 -0.1725,-3.106739 -0.2716,-4.558281 -0.5506,-7.786364 -0.8353,-9.667091 -0.031,-0.207269 -0.058,-0.387912 -0.058,-0.40143 -8e-4,-0.01352 0,-0.01678 -0.01,-0.0072 0,0.0095 0.018,0.197547 0.05,0.417815 0.3049,2.145735 0.6735,6.757488 0.9506,11.894494 0.023,0.419043 0.045,0.79692 0.049,0.839726 l 0.01,0.07783 h -11.0755 -11.0754 z m 23.9124,5.928857 c 0,-0.01126 -0.01,-0.002 -0.01,0.02048 0,0.02253 0,0.03175 0.01,0.02048 0,-0.01126 0,-0.0297 0,-0.04096 z m 0,-0.310671 c 0,-0.05668 -0.01,-0.01457 -0.01,0.09357 0,0.108141 0,0.154512 0.01,0.103048 0,-0.05146 0,-0.139943 0,-0.196618 z m -10e-4,-0.147082 c -0.01,-0.01307 -0.01,-0.0092 -0.01,0.0099 -7e-4,0.01727 0,0.02695 0.01,0.0215 0.01,-0.0054 0.01,-0.01958 0,-0.0314 z m -0.1642,-10.585669 c 0,-0.01127 -0.01,-0.002 -0.01,0.02048 0,0.02253 0,0.03175 0.01,0.02048 0,-0.01126 0,-0.0297 0,-0.04096 z m -21.2009,-0.399041 c -0.01,-0.0054 -0.02,-0.006 -0.032,-0.0013 -0.013,0.0052 -0.01,0.0091 0.01,0.0099 0.017,7.11e-4 0.027,-0.0032 0.022,-0.0086 z m 0.065,-0.01638 c -0.01,-0.0054 -0.02,-0.006 -0.031,-0.0013 -0.013,0.0052 -0.01,0.0091 0.01,0.0099 0.017,7.11e-4 0.027,-0.0032 0.022,-0.0086 z m 0.065,-0.01638 c -0.01,-0.0054 -0.019,-0.006 -0.031,-0.0013 -0.013,0.0052 -0.01,0.0091 0.01,0.0099 0.017,7.11e-4 0.027,-0.0032 0.021,-0.0086 z m 0.066,-0.01638 c -0.01,-0.0054 -0.02,-0.006 -0.031,-0.0013 -0.013,0.0052 -0.01,0.0091 0.01,0.0099 0.017,7.11e-4 0.027,-0.0032 0.022,-0.0086 z m 0.065,-0.01638 c -0.01,-0.0054 -0.02,-0.006 -0.031,-0.0013 -0.013,0.0052 -0.01,0.0091 0.01,0.0099 0.017,7.11e-4 0.027,-0.0032 0.022,-0.0086 z m 0.082,-0.01638 c -0.01,-0.0054 -0.02,-0.006 -0.031,-0.0013 -0.013,0.0052 -0.01,0.0091 0.01,0.0099 0.017,7.11e-4 0.027,-0.0032 0.022,-0.0086 z m 0.066,-0.01638 c -0.01,-0.0054 -0.02,-0.006 -0.031,-0.0013 -0.013,0.0052 -0.01,0.0091 0.01,0.0099 0.017,7.11e-4 0.027,-0.0032 0.022,-0.0086 z m 0.065,-0.01638 c -0.01,-0.0054 -0.02,-0.006 -0.031,-0.0013 -0.013,0.0052 -0.01,0.0091 0.01,0.0099 0.017,7.11e-4 0.027,-0.0032 0.021,-0.0086 z m 0.066,-0.01638 c -0.01,-0.0054 -0.02,-0.006 -0.032,-0.0013 -0.013,0.0052 -0.01,0.0091 0.01,0.0099 0.017,7.12e-4 0.027,-0.0032 0.022,-0.0086 z m 0.074,-0.01734 c -0.011,-0.0045 -0.03,-0.0045 -0.041,0 -0.011,0.0045 0,0.0083 0.02,0.0083 0.023,0 0.032,-0.0037 0.021,-0.0083 z m 0.073,-0.01543 c -0.01,-0.0054 -0.02,-0.006 -0.031,-0.0013 -0.013,0.0052 -0.01,0.0091 0.01,0.0099 0.017,7.11e-4 0.027,-0.0032 0.022,-0.0086 z m 0.066,-0.01638 c -0.01,-0.0054 -0.02,-0.006 -0.031,-0.0013 -0.013,0.0052 -0.01,0.0091 0.01,0.0099 0.017,7.11e-4 0.027,-0.0032 0.022,-0.0086 z m 0.065,-0.01638 c -0.01,-0.0054 -0.02,-0.006 -0.031,-0.0013 -0.013,0.0052 -0.01,0.0091 0.01,0.0099 0.017,7.11e-4 0.027,-0.0032 0.021,-0.0086 z m 0.066,-0.01638 c -0.01,-0.0054 -0.02,-0.006 -0.031,-0.0013 -0.013,0.0052 -0.01,0.0091 0.01,0.0099 0.017,7.11e-4 0.027,-0.0032 0.022,-0.0086 z m 0.074,-0.01734 c -0.011,-0.0045 -0.03,-0.0045 -0.041,0 -0.011,0.0045 0,0.0083 0.021,0.0083 0.023,0 0.032,-0.0037 0.02,-0.0083 z m 0.073,-0.01543 c -0.01,-0.0054 -0.02,-0.006 -0.031,-0.0013 -0.013,0.0052 -0.01,0.0091 0.01,0.0099 0.017,7.11e-4 0.027,-0.0032 0.021,-0.0086 z m 0.066,-0.01638 c -0.01,-0.0054 -0.02,-0.006 -0.031,-0.0013 -0.013,0.0052 -0.01,0.0091 0.01,0.0099 0.017,7.11e-4 0.027,-0.0032 0.022,-0.0086 z m 0.066,-0.01638 c -0.01,-0.0054 -0.02,-0.006 -0.031,-0.0013 -0.013,0.0052 -0.01,0.0091 0.01,0.0099 0.017,7.11e-4 0.027,-0.0032 0.022,-0.0086 z m 0.1437,-0.02991 c 0.045,-0.01254 0.071,-0.02331 0.057,-0.02395 -0.014,-6.33e-4 -0.061,0.0091 -0.1065,0.02165 -0.045,0.01254 -0.071,0.02331 -0.057,0.02395 0.014,6.33e-4 0.061,-0.0091 0.1065,-0.02165 z m 1.1453,-0.264223 c 1.6493,-0.380469 3.8017,-0.854234 5.1441,-1.132266 0.2511,-0.05199 0.4497,-0.09676 0.4416,-0.09949 -0.034,-0.01133 -1.8086,0.361123 -3.2656,0.68538 -1.1363,0.252887 -3.3176,0.755323 -3.3671,0.775585 -0.057,0.02339 0.123,-0.01606 1.047,-0.229209 z m 16.0784,-1.067887 c 0,-0.01594 -0.01,-0.0069 -0.01,0.02017 -3e-4,0.02703 0,0.04008 0.01,0.02899 0,-0.01109 0,-0.03321 6e-4,-0.04915 z m -0.017,-0.09043 c 0,-0.01127 -0.01,-0.002 -0.01,0.02048 0,0.02253 0,0.03175 0.01,0.02048 0,-0.01126 0,-0.0297 0,-0.04096 z m -0.016,-0.0809 c -0.01,-0.01307 -0.01,-0.0092 -0.01,0.0099 -7e-4,0.01727 0,0.02695 0.01,0.02151 0.01,-0.0054 0.01,-0.01958 0,-0.0314 z m -10.3254,-0.01331 c 0.044,-0.01123 0.045,-0.01254 0.01,-0.01281 -0.023,-1.67e-4 -0.059,0.0056 -0.082,0.01281 -0.032,0.01028 -0.034,0.01305 -0.01,0.01281 0.018,-1.69e-4 0.055,-0.0059 0.082,-0.01281 z m 0.1106,-0.02724 c -0.011,-0.0045 -0.03,-0.0045 -0.041,0 -0.011,0.0045 0,0.0083 0.021,0.0083 0.022,0 0.032,-0.0037 0.02,-0.0083 z m 0.082,-0.01638 c -0.011,-0.0045 -0.03,-0.0045 -0.041,0 -0.011,0.0045 0,0.0083 0.021,0.0083 0.023,0 0.032,-0.0037 0.021,-0.0083 z m 0.082,-0.01638 c -0.011,-0.0045 -0.03,-0.0045 -0.041,0 -0.011,0.0045 0,0.0083 0.02,0.0083 0.023,0 0.032,-0.0037 0.021,-0.0083 z m 0.073,-0.01543 c -0.01,-0.0054 -0.02,-0.006 -0.031,-0.0013 -0.013,0.0052 -0.01,0.0091 0.01,0.0099 0.017,7.11e-4 0.027,-0.0032 0.022,-0.0086 z m 0.082,-0.01638 c -0.01,-0.0054 -0.02,-0.006 -0.031,-0.0013 -0.013,0.0052 -0.01,0.0091 0.01,0.0099 0.017,7.11e-4 0.027,-0.0032 0.021,-0.0086 z m 0.074,-0.01734 c -0.011,-0.0045 -0.03,-0.0045 -0.041,0 -0.011,0.0045 0,0.0083 0.021,0.0083 0.022,0 0.032,-0.0037 0.02,-0.0083 z m 0.098,-0.01638 c -0.011,-0.0045 -0.03,-0.0045 -0.041,0 -0.011,0.0045 0,0.0083 0.02,0.0083 0.023,0 0.032,-0.0037 0.021,-0.0083 z m 0.082,-0.01638 c -0.011,-0.0045 -0.03,-0.0045 -0.041,0 -0.011,0.0045 0,0.0083 0.02,0.0083 0.023,0 0.032,-0.0037 0.02,-0.0083 z m 0.082,-0.01638 c -0.011,-0.0045 -0.03,-0.0045 -0.041,0 -0.011,0.0045 0,0.0083 0.021,0.0083 0.023,0 0.032,-0.0037 0.021,-0.0083 z m 0.082,-0.01638 c -0.011,-0.0045 -0.03,-0.0045 -0.041,0 -0.011,0.0045 0,0.0083 0.021,0.0083 0.022,0 0.032,-0.0037 0.02,-0.0083 z m 0.082,-0.01638 c -0.011,-0.0045 -0.03,-0.0045 -0.041,0 -0.011,0.0045 0,0.0083 0.021,0.0083 0.023,0 0.032,-0.0037 0.021,-0.0083 z m 0.082,-0.01639 c -0.011,-0.0045 -0.03,-0.0045 -0.041,0 -0.011,0.0045 0,0.0083 0.02,0.0083 0.023,0 0.032,-0.0037 0.021,-0.0083 z m 0.082,-0.01638 c -0.011,-0.0045 -0.03,-0.0045 -0.041,0 -0.011,0.0045 0,0.0083 0.021,0.0083 0.023,0 0.032,-0.0037 0.021,-0.0083 z m 0.09,-0.01543 c -0.01,-0.0054 -0.02,-0.006 -0.031,-0.0013 -0.013,0.0052 -0.01,0.0091 0.01,0.0099 0.017,7.11e-4 0.027,-0.0032 0.022,-0.0086 z m 0.082,-0.01638 c -0.01,-0.0054 -0.02,-0.006 -0.032,-0.0013 -0.013,0.0052 -0.01,0.0091 0.01,0.0099 0.017,7.12e-4 0.027,-0.0032 0.022,-0.0086 z m 0.082,-0.01638 c -0.01,-0.0054 -0.02,-0.006 -0.031,-0.0013 -0.013,0.0052 -0.01,0.0091 0.01,0.0099 0.017,7.12e-4 0.027,-0.0032 0.022,-0.0086 z m 8.7108,-0.840522 c -0.01,-0.03173 -0.016,-0.04685 -0.025,-0.03788 -0.01,0.009 -0.01,0.03228 0,0.05844 0.025,0.05562 0.034,0.04691 0.02,-0.02056 z m -0.4037,-0.224496 c -0.01,-0.0054 -0.02,-0.006 -0.031,-0.0013 -0.013,0.0052 -0.01,0.0091 0.01,0.0099 0.017,7.11e-4 0.027,-0.0032 0.022,-0.0086 z m 0.3119,-0.0014 c -0.016,-0.0041 -0.045,-0.0042 -0.066,-3.31e-4 -0.02,0.0039 -0.01,0.0073 0.029,0.0075 0.036,1.82e-4 0.053,-0.003 0.037,-0.0071 z"
     id="path108"
     transform="scale(0.75000001)" />
  <path
     style="fill:#333333;stroke-width:0.0163849"
     d="m 1682.4387,73.460697 v -6.163453 l 0.09,-0.02901 c 0.05,-0.01595 0.5361,-0.166514 1.0814,-0.334577 2.2591,-0.696405 4.3281,-1.349067 8.5693,-2.703187 5.9908,-1.912755 10.5475,-3.32265 12.3378,-3.817475 0.4357,-0.120438 0.5956,-0.157732 0.9831,-0.229391 0.1757,-0.0325 0.3316,-0.06264 0.3463,-0.06699 0.021,-0.0062 0.03,0.0091 0.041,0.07043 0.012,0.06407 0.021,0.07932 0.052,0.08369 0.021,0.003 0.044,0.02186 0.052,0.04225 0.015,0.04002 0.055,0.472279 0.082,0.878141 0.069,1.070109 0.1536,3.352767 0.2132,5.775677 0.01,0.36948 0.02,0.808185 0.025,0.974902 0.037,1.270245 0.1301,6.45758 0.1712,9.568781 0.01,0.680383 0.021,1.434293 0.026,1.675356 l 0.01,0.438296 h -0.9587 -0.9586 l -0.01,-0.135175 c -0.01,-0.07435 -0.039,-0.677106 -0.076,-1.339466 -0.2131,-3.906008 -0.4463,-7.105749 -0.6798,-9.3312 -0.056,-0.530718 -0.1995,-1.720962 -0.2118,-1.753184 -0.015,-0.039 -0.01,0.0665 0.024,0.30312 0.2682,2.081844 0.5925,6.243772 0.8592,11.027038 0.031,0.56323 0.061,1.070138 0.066,1.126461 l 0.01,0.102406 h -11.0766 -11.0767 z m 4.2024,-5.905732 c -0.01,-0.0054 -0.02,-0.006 -0.031,-0.0013 -0.013,0.0052 -0.01,0.0091 0.01,0.0099 0.017,7.11e-4 0.027,-0.0032 0.022,-0.0086 z m 0.066,-0.01638 c -0.01,-0.0054 -0.02,-0.006 -0.031,-0.0013 -0.013,0.0052 -0.01,0.0091 0.01,0.0099 0.017,7.11e-4 0.027,-0.0032 0.022,-0.0086 z m 0.066,-0.01638 c -0.01,-0.0054 -0.02,-0.006 -0.031,-0.0013 -0.013,0.0052 -0.01,0.0091 0.01,0.0099 0.017,7.11e-4 0.027,-0.0032 0.022,-0.0086 z m 0.082,-0.01638 c -0.01,-0.0054 -0.02,-0.006 -0.031,-0.0013 -0.013,0.0052 -0.01,0.0091 0.01,0.0099 0.017,7.11e-4 0.027,-0.0032 0.022,-0.0086 z m 0.066,-0.01638 c -0.01,-0.0054 -0.02,-0.006 -0.031,-0.0013 -0.013,0.0052 -0.01,0.0091 0.01,0.0099 0.017,7.12e-4 0.027,-0.0032 0.021,-0.0086 z m 0.066,-0.01638 c -0.01,-0.0054 -0.02,-0.006 -0.031,-0.0013 -0.013,0.0052 -0.01,0.0091 0.01,0.0099 0.017,7.11e-4 0.027,-0.0032 0.022,-0.0086 z m 0.082,-0.01638 c -0.01,-0.0054 -0.019,-0.006 -0.031,-0.0013 -0.013,0.0052 -0.01,0.0091 0.01,0.0099 0.017,7.11e-4 0.027,-0.0032 0.022,-0.0086 z m 0.066,-0.01638 c -0.01,-0.0054 -0.02,-0.006 -0.031,-0.0013 -0.013,0.0052 -0.01,0.0091 0.01,0.0099 0.017,7.11e-4 0.027,-0.0032 0.022,-0.0086 z m 0.065,-0.01638 c -0.01,-0.0054 -0.02,-0.006 -0.031,-0.0013 -0.013,0.0052 -0.01,0.0091 0.01,0.0099 0.017,7.11e-4 0.027,-0.0032 0.022,-0.0086 z m 0.074,-0.01734 c -0.011,-0.0045 -0.03,-0.0045 -0.041,0 -0.011,0.0045 0,0.0083 0.021,0.0083 0.023,0 0.032,-0.0037 0.021,-0.0083 z m 0.073,-0.01543 c -0.01,-0.0054 -0.02,-0.006 -0.031,-0.0013 -0.013,0.0052 -0.01,0.0091 0.01,0.0099 0.017,7.11e-4 0.027,-0.0032 0.022,-0.0086 z m 0.065,-0.01638 c -0.01,-0.0054 -0.02,-0.006 -0.031,-0.0013 -0.013,0.0052 -0.01,0.0091 0.01,0.0099 0.017,7.11e-4 0.027,-0.0032 0.022,-0.0086 z m 0.074,-0.01734 c -0.011,-0.0045 -0.03,-0.0045 -0.041,0 -0.011,0.0045 0,0.0083 0.02,0.0083 0.023,0 0.032,-0.0037 0.021,-0.0083 z m 0.073,-0.01543 c -0.01,-0.0054 -0.02,-0.006 -0.031,-0.0013 -0.013,0.0052 -0.01,0.0091 0.01,0.0099 0.017,7.11e-4 0.027,-0.0032 0.022,-0.0086 z m 0.1437,-0.02991 c 0.045,-0.01254 0.071,-0.02331 0.057,-0.02395 -0.014,-6.33e-4 -0.061,0.0091 -0.1065,0.02165 -0.045,0.01254 -0.071,0.02331 -0.057,0.02394 0.014,6.33e-4 0.061,-0.0091 0.1065,-0.02165 z m 0.1884,-0.04211 c 0.033,-0.01039 0.034,-0.01312 0.01,-0.01312 -0.018,0 -0.051,0.0059 -0.074,0.01312 -0.033,0.01039 -0.034,0.01312 -0.01,0.01312 0.018,0 0.051,-0.0059 0.074,-0.01312 z m 0.094,-0.02628 c -0.01,-0.0054 -0.02,-0.006 -0.031,-0.0013 -0.013,0.0052 -0.01,0.0091 0.01,0.0099 0.017,7.11e-4 0.027,-0.0032 0.022,-0.0086 z m 0.1191,-0.02287 c 0.032,-0.01039 0.034,-0.01312 0.01,-0.01312 -0.018,0 -0.051,0.0059 -0.074,0.01312 -0.033,0.01039 -0.034,0.01312 -0.01,0.01312 0.018,0 0.051,-0.0059 0.074,-0.01312 z m 0.1721,-0.03981 c 0.045,-0.01254 0.071,-0.02331 0.057,-0.02394 -0.014,-6.33e-4 -0.061,0.0091 -0.1065,0.02165 -0.045,0.01254 -0.071,0.02331 -0.057,0.02394 0.014,6.32e-4 0.061,-0.0091 0.1065,-0.02165 z m 0.1884,-0.04211 c 0.032,-0.01039 0.034,-0.01312 0.01,-0.01312 -0.018,0 -0.051,0.0059 -0.074,0.01312 -0.032,0.01039 -0.034,0.01312 -0.01,0.01312 0.018,0 0.051,-0.0059 0.074,-0.01312 z m 0.172,-0.03981 c 0.045,-0.01254 0.071,-0.02331 0.057,-0.02394 -0.014,-6.32e-4 -0.062,0.0091 -0.1065,0.02165 -0.045,0.01254 -0.071,0.02331 -0.057,0.02394 0.014,6.33e-4 0.062,-0.0091 0.1065,-0.02165 z m 0.9184,-0.204286 c 0.4411,-0.09821 1.1213,-0.247391 1.5115,-0.331519 0.3902,-0.08413 0.7028,-0.155196 0.6946,-0.157931 -0.026,-0.0087 -3.014,0.642889 -3.033,0.661375 -0.015,0.01449 0.053,3.28e-4 0.8269,-0.171925 z m 14.0605,0.06796 c 0,-0.01577 -0.01,-0.0029 -0.01,0.02867 0,0.03154 0,0.04444 0.01,0.02867 0,-0.01577 0,-0.04158 0,-0.05735 z m -0.016,-0.114694 c 0,-0.01577 -0.01,-0.0029 -0.01,0.02867 0,0.03154 0,0.04444 0.01,0.02867 0,-0.01577 0,-0.04158 0,-0.05735 z m -0.016,-0.098 c 0,-0.01594 -0.01,-0.0069 -0.01,0.02017 -4e-4,0.02703 0,0.04008 0.01,0.02899 0,-0.01109 0,-0.03321 6e-4,-0.04915 z m -0.016,-0.114694 c 0,-0.01594 -0.01,-0.0069 -0.01,0.02017 -4e-4,0.02703 0,0.04008 0.01,0.02899 0,-0.01109 0,-0.03321 6e-4,-0.04915 z m -0.016,-0.10579 c -0.01,-0.01307 -0.01,-0.0092 -0.01,0.0099 -7e-4,0.01727 0,0.02695 0.01,0.02151 0.01,-0.0054 0.01,-0.01958 0,-0.0314 z m -11.4848,-0.179757 c 0.1374,-0.02866 0.2467,-0.05526 0.2428,-0.05913 -0.01,-0.0072 -0.5036,0.09344 -0.5158,0.104625 -0.014,0.01256 0.028,0.0056 0.273,-0.0455 z m 0.3196,-0.0738 c -0.011,-0.0045 -0.03,-0.0045 -0.041,0 -0.011,0.0045 0,0.0083 0.021,0.0083 0.023,0 0.032,-0.0037 0.02,-0.0083 z m 0.082,-0.01638 c -0.011,-0.0045 -0.03,-0.0045 -0.041,0 -0.011,0.0045 0,0.0083 0.02,0.0083 0.023,0 0.032,-0.0037 0.021,-0.0083 z m 0.082,-0.01638 c -0.011,-0.0045 -0.03,-0.0045 -0.041,0 -0.011,0.0045 0,0.0083 0.02,0.0083 0.023,0 0.032,-0.0037 0.02,-0.0083 z m 0.082,-0.01638 c -0.011,-0.0045 -0.03,-0.0045 -0.041,0 -0.011,0.0045 0,0.0083 0.021,0.0083 0.023,0 0.032,-0.0037 0.02,-0.0083 z m 0.073,-0.01543 c -0.01,-0.0054 -0.02,-0.006 -0.031,-0.0013 -0.013,0.0052 -0.01,0.0091 0.01,0.0099 0.017,7.11e-4 0.027,-0.0032 0.022,-0.0086 z m 0.082,-0.01638 c -0.01,-0.0054 -0.02,-0.006 -0.031,-0.0013 -0.013,0.0052 -0.01,0.0091 0.01,0.0099 0.017,7.11e-4 0.027,-0.0032 0.022,-0.0086 z m 0.082,-0.01638 c -0.01,-0.0054 -0.02,-0.006 -0.031,-0.0013 -0.013,0.0052 -0.01,0.0091 0.01,0.0099 0.017,7.12e-4 0.027,-0.0032 0.022,-0.0086 z m 10.3366,-1.198404 c -0.018,-0.01762 -0.027,0.0071 -0.015,0.03853 0.012,0.02953 0.013,0.02958 0.018,0.0011 0,-0.01648 0,-0.0343 0,-0.0396 z"
     id="path110"
     transform="scale(0.75000001)" />
  <path
     style="fill:#333333;stroke-width:0.0163849"
     d="m 1682.4349,73.459332 2e-4,-6.164819 1.2163,-0.375431 c 2.2005,-0.679163 4.112,-1.281742 8.1308,-2.56306 5.9447,-1.895357 9.6717,-3.056042 11.8627,-3.694411 1.0911,-0.317906 1.3602,-0.387579 1.8514,-0.479357 0.1713,-0.03201 0.3274,-0.06208 0.347,-0.06683 0.032,-0.0077 0.037,-1.36e-4 0.047,0.06673 0.01,0.06186 0.018,0.07717 0.052,0.08547 0.022,0.0056 0.046,0.02634 0.054,0.04619 0.018,0.04675 0.059,0.516697 0.09,1.024784 0.1453,2.385076 0.2914,8.161922 0.3931,15.54927 0.013,0.950734 0.028,1.955333 0.034,2.232442 l 0.01,0.503836 h -0.9589 -0.9589 l -0.01,-0.03687 -0.01,-0.03687 v 0.03687 0.03687 h -11.0762 -11.0762 z m 22.1478,5.882611 c 0,-0.03854 -0.01,-0.01108 -0.01,0.06101 0,0.07209 0,0.103625 0.01,0.07007 0,-0.03355 0,-0.09254 10e-5,-0.131079 z m -0.016,-0.295856 c 0,-0.03803 -0.01,-0.0028 -0.01,0.07832 0,0.08111 0,0.112218 0.01,0.06914 0,-0.04308 0,-0.109437 -10e-5,-0.147465 z m -0.061,-1.104669 c -0.1875,-3.340725 -0.3635,-5.857529 -0.5589,-7.992551 -0.08,-0.870681 -0.1814,-1.827922 -0.1911,-1.798916 0,0.0095 0.028,0.351823 0.069,0.760656 0.2341,2.344201 0.5329,6.484277 0.7093,9.828758 0.01,0.13067 0.015,0.206612 0.018,0.168762 0,-0.03785 -0.018,-0.47287 -0.045,-0.966709 z m -0.7591,-9.921873 c 0,-0.02028 -0.01,-0.0037 -0.01,0.03687 0,0.04055 0,0.05714 0.01,0.03687 0,-0.02028 0,-0.05346 0,-0.07373 z m -0.016,-0.130888 c 0,-0.02038 -0.01,-0.0076 -0.01,0.02848 -2e-4,0.03605 0,0.05272 0.01,0.03706 0,-0.01566 0,-0.04516 3e-4,-0.06554 z m -0.016,-0.147655 c 0,-0.02028 -0.01,-0.0037 -0.01,0.03687 0,0.04055 0,0.05714 0.01,0.03687 0,-0.02028 0,-0.05346 0,-0.07373 z m -0.016,-0.130889 c 0,-0.02038 -0.01,-0.0076 -0.01,0.02848 -2e-4,0.03605 0,0.05272 0.01,0.03706 0,-0.01566 0,-0.04516 3e-4,-0.06554 z m -0.016,-0.131079 c 0,-0.02038 -0.01,-0.0076 -0.01,0.02848 -2e-4,0.03605 0,0.05272 0.01,0.03706 0,-0.01567 0,-0.04516 4e-4,-0.06554 z m -0.017,-0.122766 c 0,-0.01594 -0.01,-0.0069 -0.01,0.02017 -3e-4,0.02704 0,0.04008 0.01,0.02899 0,-0.01109 0,-0.03321 6e-4,-0.04915 z m -0.016,-0.131391 c 0,-0.01577 -0.01,-0.0029 -0.01,0.02867 0,0.03154 0,0.04444 0.01,0.02867 0,-0.01577 0,-0.04158 0,-0.05735 z m -0.016,-0.114382 c 0,-0.01594 -0.01,-0.0069 -0.01,0.02017 -3e-4,0.02703 0,0.04008 0.01,0.02899 0,-0.01109 0,-0.03321 6e-4,-0.04915 z m -14.7131,-0.07985 c -0.01,-0.0054 -0.02,-0.006 -0.031,-0.0013 -0.013,0.0052 -0.01,0.0091 0.01,0.0099 0.017,7.11e-4 0.027,-0.0032 0.022,-0.0086 z m 0.074,-0.01734 c -0.011,-0.0045 -0.03,-0.0045 -0.041,0 -0.011,0.0045 0,0.0083 0.02,0.0083 0.023,0 0.032,-0.0037 0.021,-0.0083 z m 0.073,-0.01543 c -0.01,-0.0054 -0.02,-0.006 -0.031,-0.0013 -0.013,0.0052 -0.01,0.0091 0.01,0.0099 0.017,7.12e-4 0.027,-0.0032 0.022,-0.0086 z m 0.074,-0.01734 c -0.011,-0.0045 -0.03,-0.0045 -0.041,0 -0.011,0.0045 0,0.0083 0.02,0.0083 0.023,0 0.032,-0.0037 0.021,-0.0083 z m 0.073,-0.01543 c -0.01,-0.0054 -0.02,-0.006 -0.031,-0.0013 -0.013,0.0052 -0.01,0.0091 0.01,0.0099 0.017,7.11e-4 0.027,-0.0032 0.022,-0.0086 z m 0.065,-0.01638 c -0.01,-0.0054 -0.02,-0.006 -0.031,-0.0013 -0.013,0.0052 -0.01,0.0091 0.01,0.0099 0.017,7.11e-4 0.027,-0.0032 0.022,-0.0086 z m 0.082,-0.01638 c -0.01,-0.0054 -0.02,-0.006 -0.031,-0.0013 -0.013,0.0052 -0.01,0.0091 0.01,0.0099 0.017,7.11e-4 0.027,-0.0032 0.022,-0.0086 z m 0.074,-0.01734 c -0.011,-0.0045 -0.03,-0.0045 -0.041,0 -0.011,0.0045 0,0.0083 0.021,0.0083 0.023,0 0.032,-0.0037 0.02,-0.0083 z m 0.073,-0.01543 c -0.01,-0.0054 -0.02,-0.006 -0.031,-0.0013 -0.013,0.0052 -0.01,0.0091 0.01,0.0099 0.017,7.11e-4 0.027,-0.0032 0.021,-0.0086 z m 0.074,-0.01734 c -0.011,-0.0045 -0.03,-0.0045 -0.041,0 -0.011,0.0045 0,0.0083 0.021,0.0083 0.022,0 0.032,-0.0037 0.02,-0.0083 z m 0.073,-0.01543 c -0.01,-0.0054 -0.019,-0.006 -0.031,-0.0013 -0.013,0.0052 -0.01,0.0091 0.01,0.0099 0.017,7.11e-4 0.027,-0.0032 0.022,-0.0086 z m 0.074,-0.01734 c -0.011,-0.0045 -0.03,-0.0045 -0.041,0 -0.011,0.0045 0,0.0083 0.02,0.0083 0.023,0 0.032,-0.0037 0.021,-0.0083 z m 0.073,-0.01543 c -0.01,-0.0054 -0.02,-0.006 -0.031,-0.0013 -0.013,0.0052 -0.01,0.0091 0.01,0.0099 0.017,7.12e-4 0.027,-0.0032 0.022,-0.0086 z m 0.074,-0.01734 c -0.011,-0.0045 -0.03,-0.0045 -0.041,0 -0.011,0.0045 0,0.0083 0.021,0.0083 0.023,0 0.032,-0.0037 0.021,-0.0083 z m 0.073,-0.01543 c -0.01,-0.0054 -0.02,-0.006 -0.031,-0.0013 -0.013,0.0052 -0.01,0.0091 0.01,0.0099 0.017,7.11e-4 0.027,-0.0032 0.022,-0.0086 z m 0.074,-0.01734 c -0.011,-0.0045 -0.03,-0.0045 -0.041,0 -0.011,0.0045 0,0.0083 0.021,0.0083 0.023,0 0.032,-0.0037 0.02,-0.0083 z m 0.073,-0.01543 c -0.01,-0.0054 -0.02,-0.006 -0.031,-0.0013 -0.013,0.0052 -0.01,0.0091 0.01,0.0099 0.017,7.11e-4 0.027,-0.0032 0.022,-0.0086 z m 0.074,-0.01734 c -0.011,-0.0045 -0.03,-0.0045 -0.041,0 -0.011,0.0045 0,0.0083 0.02,0.0083 0.023,0 0.032,-0.0037 0.02,-0.0083 z m 0.073,-0.01543 c -0.01,-0.0054 -0.02,-0.006 -0.031,-0.0013 -0.013,0.0052 -0.01,0.0091 0.01,0.0099 0.017,7.11e-4 0.027,-0.0032 0.021,-0.0086 z m 0.074,-0.01734 c -0.011,-0.0045 -0.03,-0.0045 -0.041,0 -0.011,0.0045 0,0.0083 0.021,0.0083 0.022,0 0.032,-0.0037 0.02,-0.0083 z m 0.127,-0.02192 c 0.032,-0.01039 0.034,-0.01312 0.01,-0.01312 -0.018,0 -0.051,0.0059 -0.074,0.01312 -0.032,0.01039 -0.034,0.01312 -0.01,0.01312 0.018,0 0.051,-0.0059 0.074,-0.01312 z m 0.1024,-0.02724 c -0.011,-0.0045 -0.03,-0.0045 -0.041,0 -0.011,0.0045 0,0.0083 0.021,0.0083 0.023,0 0.032,-0.0037 0.02,-0.0083 z m 0.073,-0.01543 c -0.01,-0.0054 -0.02,-0.006 -0.031,-0.0013 -0.013,0.0052 -0.01,0.0091 0.01,0.0099 0.017,7.11e-4 0.027,-0.0032 0.021,-0.0086 z m 0.074,-0.01734 c -0.011,-0.0045 -0.03,-0.0045 -0.041,0 -0.011,0.0045 0,0.0083 0.02,0.0083 0.023,0 0.032,-0.0037 0.02,-0.0083 z m 0.082,-0.01638 c -0.011,-0.0045 -0.03,-0.0045 -0.041,0 -0.011,0.0045 0,0.0083 0.021,0.0083 0.023,0 0.032,-0.0037 0.021,-0.0083 z m 0.073,-0.01543 c -0.01,-0.0054 -0.02,-0.006 -0.031,-0.0013 -0.013,0.0052 -0.01,0.0091 0.01,0.0099 0.017,7.11e-4 0.027,-0.0032 0.022,-0.0086 z m 0.074,-0.01734 c -0.011,-0.0045 -0.03,-0.0045 -0.041,0 -0.011,0.0045 0,0.0083 0.02,0.0083 0.023,0 0.032,-0.0037 0.02,-0.0083 z m 0.073,-0.01543 c -0.01,-0.0054 -0.02,-0.006 -0.031,-0.0013 -0.013,0.0052 -0.01,0.0091 0.01,0.0099 0.017,7.11e-4 0.027,-0.0032 0.021,-0.0086 z m 0.074,-0.01734 c -0.011,-0.0045 -0.03,-0.0045 -0.041,0 -0.011,0.0045 0,0.0083 0.021,0.0083 0.022,0 0.032,-0.0037 0.02,-0.0083 z m 0.073,-0.01543 c -0.01,-0.0054 -0.02,-0.006 -0.031,-0.0013 -0.013,0.0052 -0.01,0.0091 0.01,0.0099 0.017,7.11e-4 0.027,-0.0032 0.021,-0.0086 z m 0.082,-0.01638 c -0.01,-0.0054 -0.02,-0.006 -0.031,-0.0013 -0.013,0.0052 -0.01,0.0091 0.01,0.0099 0.017,7.11e-4 0.027,-0.0032 0.022,-0.0086 z m 0.065,-0.01638 c -0.01,-0.0054 -0.02,-0.006 -0.031,-0.0013 -0.013,0.0052 -0.01,0.0091 0.01,0.0099 0.017,7.12e-4 0.027,-0.0032 0.022,-0.0086 z m 0.082,-0.01638 c -0.01,-0.0054 -0.02,-0.006 -0.031,-0.0013 -0.013,0.0052 -0.01,0.0091 0.01,0.0099 0.017,7.11e-4 0.027,-0.0032 0.022,-0.0086 z m 0.082,-0.01638 c -0.01,-0.0054 -0.02,-0.006 -0.031,-0.0013 -0.013,0.0052 -0.01,0.0091 0.01,0.0099 0.017,7.11e-4 0.027,-0.0032 0.022,-0.0086 z m 0.4588,-0.09831 c -0.01,-0.0054 -0.02,-0.006 -0.031,-0.0013 -0.013,0.0052 -0.01,0.0091 0.01,0.0099 0.017,7.11e-4 0.027,-0.0032 0.021,-0.0086 z m 0.082,-0.01638 c -0.01,-0.0054 -0.02,-0.006 -0.031,-0.0013 -0.013,0.0052 -0.01,0.0091 0.01,0.0099 0.017,7.11e-4 0.027,-0.0032 0.022,-0.0086 z m 0.082,-0.01638 c -0.01,-0.0054 -0.02,-0.006 -0.031,-0.0013 -0.013,0.0052 -0.01,0.0091 0.01,0.0099 0.017,7.12e-4 0.027,-0.0032 0.021,-0.0086 z m 0.066,-0.01638 c -0.01,-0.0054 -0.02,-0.006 -0.032,-0.0013 -0.013,0.0052 -0.01,0.0091 0.01,0.0099 0.017,7.11e-4 0.027,-0.0032 0.022,-0.0086 z m 0.082,-0.01638 c -0.01,-0.0054 -0.02,-0.006 -0.031,-0.0013 -0.013,0.0052 -0.01,0.0091 0.01,0.0099 0.017,7.11e-4 0.027,-0.0032 0.022,-0.0086 z"
     id="path112"
     transform="scale(0.75000001)" />
  <path
     style="fill:#333333;stroke-width:0.0163849"
     d="m 1703.7722,68.334954 c 0,-0.04055 0,-0.05714 0.01,-0.03687 0,0.02028 0,0.05346 0,0.07373 0,0.02028 -0.01,0.0037 -0.01,-0.03687 z"
     id="path114"
     transform="scale(0.75000001)" />
  <path
     style="fill:#333333;stroke-width:0.00819245"
     d="m 1704.2511,74.112679 c -10e-5,-0.04177 -0.097,-1.376753 -0.1519,-2.087026 -0.091,-1.187187 -0.1738,-2.135272 -0.2744,-3.149391 -0.027,-0.270018 -0.047,-0.492513 -0.045,-0.494433 0.01,-0.0051 0.011,0.03424 0.029,0.202995 0.1402,1.296195 0.2811,2.957295 0.4261,5.026068 0.036,0.518868 0.036,0.512028 0.025,0.512028 0,0 -0.01,-0.0046 -0.01,-0.01024 z"
     id="path116"
     transform="scale(0.75000001)" />
  <path
     style="fill:#333333;stroke-width:0.0327698"
     d="M 576.99844,9.0832512 C 560.2269,7.3587668 541.04159,5.6708499 522.71527,4.307436 518.49594,3.9935335 517.1904,3.9053123 514.45728,3.7494062 c -1.19627,-0.068239 -4.55466,-0.2465021 -4.64398,-0.2465021 -0.0142,0 -0.0257,-0.1695837 -0.0257,-0.3768527 V 2.7491987 h 0.0913 c 0.12605,0 7.04036,0.4855332 8.62548,0.6056941 0.35145,0.026642 1.45743,0.1081855 2.45773,0.1812071 13.48285,0.9842453 28.81132,2.271832 42.5352,3.5729443 5.68859,0.5393155 14.17728,1.3846738 14.20748,1.4148728 0.009,0.0094 0.0128,0.1553934 0.008,0.3244328 l -0.009,0.3073446 z"
     id="path118"
     transform="scale(0.75000001)" />
</svg>
